<svg xmlns="http://www.w3.org/2000/svg" version="1.1" viewBox="-5.0 -10.0 110.0 135.0">
 <path d="m25.207 22.055c-0.30859 0.015624 0.50781 23.594 1 34.574 0.90234 20.043 1.1719 20.449 1.4766 20.434 0.30859-0.015625 0.53516-0.44531-0.36719-20.484-0.49219-10.98-1.8047-34.539-2.1094-34.523z"/>
 <path d="m76.242 74.633c-0.0625-0.65625-4.6562 0.24219-36.855 1.6719-7.7344 0.37891-11.59 0.55859-11.586 0.70703 0.003907 0.12891 4.1875 0.17578 10.684 0.09375-0.070313 0.93359-0.015625 2.082-0.18359 6.582-0.11328 3.1133-0.25781 4.1836 0.24219 4.2383 0.15234 0.015625 0.29297 0.011719 0.45312-0.51953 0.67969-2.4258 0.47656-7.875-0.15625-10.312 10-0.13672 25.23-0.61328 35.051-1.8594 2.2852-0.30078 2.3633-0.44531 2.3516-0.60156z"/>
 <path d="m48.477 14.84c0.16406-0.039063 0.37109-0.23047 0.42188-0.39062 0.10937-0.27734 0.003906-0.39453-0.09375-0.78125l-0.035157-0.015625c-0.34375-0.16016-0.55078 0.035156-0.60938 0.16406-0.23828-0.20312-0.72266 0.23828-0.48438 0.71094 0.12109 0.25781 0.47656 0.42188 0.80078 0.3125zm-0.26562-0.67188c0 0.003906-0.003907 0.027343 0.003906-0.082031v-0.011719l0.027344 0.023437s-0.003907-0.003906 0 0.003906c0.011718 0.03125 0.003906 0.085938 0 0.082032-0.003907 0.003906 0 0.003906-0.003907 0.003906-0.011719-0.003906-0.023437-0.011719-0.023437-0.019531-0.007813-0.011719 0-0.003907-0.003906 0z"/>
 <path d="m51.281 14.629c0.42969-0.17188 0.57031-0.77734 0.18359-1.1641-0.44141-0.41797-1.2148-0.12109-1.1484 0.27344-0.36328 0.28906 0.16406 1.1953 0.96484 0.89062z"/>
 <path d="m41.898 11.434c0.85937 0.74609 1.0547 1.3672 1.4414 1.1914 0.13281-0.058594 0.28125-0.14062 0.070312-0.72266-0.11328-0.28516-0.32422-0.70703-0.80469-1.207-2.5117-2.5391-6.2461-1.0156-6.5273 1.4961-0.13672 0.89453 0.14453 1.6953 0.48828 2.1445 0.33984 0.46484 0.6875 0.58594 0.72266 0.53125 0.10156-0.11719-0.87109-1.0234-0.4375-2.5195 0.42578-1.6641 2.9219-2.7148 5.0469-0.91406z"/>
 <path d="m57.422 9.6289c-1.2148 1.2109-1.1055 2.7656-0.91797 2.7578 0.17578 0.003906 0.21484-1.2344 1.4492-2.1758 1.7617-1.418 4.0312-0.71484 4.8633 1.4883 0.37891 1.0352 0.09375 1.5977 0.52344 1.7109 0.13672 0.039063 0.3125 0.078125 0.49219-0.53516 0.078125-0.30469 0.14062-0.79688-0.035156-1.4727-0.82812-3.0117-4.293-3.9414-6.375-1.7734z"/>
 <path d="m35.625 68.469c0.15234 0 0.29297-0.074219 0.36328-1.8828 0.23828-6.2773-0.50781-21.32-0.77734-27.031-0.32422-6.4336-0.59766-12.855-0.75391-6.4102-0.12891 6.0625 0.085938 15.168 0.27734 21.211 0.38281 12.125 0.45312 14.121 0.89062 14.113z"/>
 <path d="m41.914 37.266c-0.57812-0.050781-1.4922-0.035156-2.2578 0.058594s-1.375 0.26172-1.3672 0.41406c0.015626 0.35938 4.2773 0.71094 4.7188 0.71875-0.1875 0.95703 0.023438 2.9648 0.26172 4.0742-0.95703-0.28125-4.6641 0.55078-4.6172 0.94531 0.050781 0.41797 4.2461 0.32422 4.8203-0.25 0.51953 1.1367 0.80469-3.7422 0.39453-4.9102 0.070312-0.0625 0.089843-0.14844 0.10547-0.24219 0.042969-0.28906 0.050782-0.60156-2.0586-0.80859z"/>
 <path d="m38.012 41.133c0.17578 1.8789 0.42969 1.8945 0.73438 1.8672 0.30469-0.027344 0.55078-0.089844 0.375-1.9727-0.097656-1.0312-0.55469-3.2148-0.85938-3.1875-0.30859 0.03125-0.34766 2.2656-0.25 3.293z"/>
 <path d="m42.289 48.766c-0.57812-0.050781-1.4922-0.039063-2.2578 0.058594-0.76562 0.09375-1.375 0.26172-1.3672 0.41406 0.015626 0.35938 4.2773 0.71094 4.7188 0.71875-0.1875 0.96094 0.023438 2.9688 0.26172 4.0742-0.97266-0.28906-4.6641 0.55469-4.6172 0.94531 0.050781 0.41797 4.2461 0.32422 4.8203-0.25 0.51953 1.1367 0.80469-3.7422 0.39453-4.9102 0.070312-0.066406 0.089843-0.14844 0.10547-0.24219 0.046875-0.28906 0.050782-0.60156-2.0586-0.80859z"/>
 <path d="m39.492 52.527c-0.097657-1.0312-0.55469-3.2148-0.85938-3.1875-0.30469 0.027344-0.34766 2.2617-0.25 3.293 0.17578 1.8789 0.42969 1.8945 0.73438 1.8672 0.30859-0.03125 0.55469-0.09375 0.375-1.9727z"/>
 <path d="m54.887 38.258c-2.5 0.050782-7.8594 0.40625-7.8516 0.71484 0.007813 0.30859 5.375 0.44922 7.875 0.39844 4.5625-0.089844 4.6523-0.34375 4.6445-0.64844-0.003907-0.30859-0.10547-0.55859-4.668-0.46484z"/>
 <path d="m54.109 42.008c2.5469-0.050781 2.5938-0.30078 2.5898-0.60937-0.007813-0.30859-0.0625-0.55469-2.6094-0.50391-1.3945 0.027344-4.3828 0.33594-4.3789 0.64453 0.003906 0.30469 3.0039 0.49609 4.3984 0.46875z"/>
 <path d="m62.125 50.758c-0.007812-0.30859-0.11719-0.55469-5.2617-0.45312-2.8203 0.054687-8.8633 0.42578-8.8594 0.73437 0.007813 0.30859 6.0625 0.43359 8.8789 0.37891 5.1484-0.10156 5.25-0.35547 5.2422-0.66016z"/>
 <path d="m55.262 53.543c-1.1328 0.023437-3.5625 0.32031-3.5547 0.62891 0.007813 0.30859 2.4453 0.50781 3.5781 0.48438 2.0703-0.042969 2.1055-0.29297 2.1016-0.59766-0.007813-0.30859-0.054688-0.55859-2.125-0.51562z"/>
 <path d="m46.52 63.172c-0.14062 0.13672-0.54688 0.066406-0.81641-0.19922-0.86719-0.75391-0.03125-3.0625-1.4922-4.0859-0.49219-0.35156-1.1328-0.34375-1.5859-0.16016-2.2031 0.83594-1.4492 4.0352-1.3477 4.0312 0.15625-0.011718-0.097656-1.918 0.69531-2.8711 0.46484-0.53516 1.2734-0.86328 1.8164-0.42969 1.0469 0.82422 0.070313 2.9453 1.2617 4.1719 0.86328 0.87109 2.1758 0.79297 2.6445-0.51172 0.20313-0.57422 0.27734-1.4453 0.67969-1.9844 0.19922-0.27734 0.53125-0.46484 0.76953-0.46094 1.082 0.007813 0.98828 2.8281 2.7656 3.043 1.3008 0.1875 1.918-1.1055 2.9609-1.5625 0.35156-0.15625 0.71484-0.24609 1.0547-0.28906 2.3008-0.25 4.3203 1.1055 4.5273 0.57422 0.054687-0.13672 0.082031-0.30469-1.2227-0.92188-2.1797-0.97656-4.3359-1.043-6.125 0.55859-1.6055 1.4141-1.543-0.26562-2.4336-1.6172-0.76953-1.2031-2.293-1.1484-3.1602 0.054688-0.35156 0.50781-0.49219 1.0703-0.60547 1.582-0.097656 0.52734-0.19922 0.97266-0.38672 1.0781z"/>
 <path d="m64.805 85.629c0.082031 0.42969 0.22266 0.45312 0.375 0.46094 0.15234 0.007812 0.29297-0.003906 0.41016-0.43359 0.41406-1.5938 0.089844-4.8477-0.23047-6.4844-0.23047-1.1875-0.52734-2.1289-0.67578-2.1016-0.20312 0.03125-0.12109 1.6211-0.03125 5.6719 0.042968 1.625 0.058594 2.457 0.15234 2.8867z"/>
 <path d="m62.715 87c-0.066406 0.13281-0.11719 0.27734 0.44922 0.64453 1.9922 1.2422 5.5781 1.4062 7.0352 0.76562 1.3086-0.60156 1.3086-1.7578 0.58203-2.4297-1.2891-1.1797-4.125-0.65625-4.043-0.33984 0.019531 0.082031 0.38281 0.046875 0.94922 0.082031 0.55078 0.035156 1.3594 0.16406 2.0547 0.52734 0.33203 0.17969 0.60937 0.48828 0.58984 0.69141-0.007812 0.76172-2.0039 0.72656-2.7578 0.72266-1.8867-0.046874-3.1367-0.5-4.0977-0.74219-0.60547-0.16406-0.69141-0.066406-0.76172 0.078125z"/>
 <path d="m38.555 90.117c-0.58594-0.19531-0.96094-0.39453-1.2266-0.51172-0.52344-0.25391-0.625-0.19141-0.73047-0.070313-0.09375 0.10938-0.19141 0.24609 0.28125 0.71484 0.85938 0.79688 2.4102 1.4219 4.2344 1.2891 4.4609-0.41016 3.4062-4.2617 0.60938-4.2617-0.85156 0.007812-1.9219 0.40234-1.8945 0.53516 0.015625 0.078125 0.375 0.0625 0.92578 0.042969 0.53125-0.011719 1.332-0.007813 1.875 0.41016 0.54297 0.41797 0.80078 1.1172 0.28125 1.5781-0.60156 0.51172-2.4258 0.91406-4.3555 0.27344z"/>
 <path d="m86.926 27.199c1.25-2.6172-0.64062-3.6602-2.1172-2.9648-0.82031 0.42969-1.0977 1.1445-1.2656 1.6094-0.015625-0.55859-0.019531-0.95312-0.3125-1.4297-0.32812-0.51953-1.0469-0.66016-1.5625-0.28906-0.40625 0.27734-0.62109 0.67969-0.76562 0.99219-0.84375 1.7852-0.58203 3.4297-0.39844 3.4102 0.15625 0 0.25391-1.043 0.76953-2.1484 0.24609-0.51953 0.61719-1.2227 0.94141-1.3867 0.082031-0.039063 0.085937-0.019532 0.089844-0.015626 0.082031 0.13672 0.11328 0.39844 0.11719 0.55469 0.12891 2.8203-0.019531 3.543 0.48047 3.5898 0.15234 0.011718 0.29688 0.011718 0.43359-0.44922 0.097656-0.35156 0.20703-0.97656 0.21875-2.0547 0.33984-0.41406 0.78125-1.4062 1.5586-1.6523 0.52344-0.17188 1.1211-0.039063 1.1875 0.51562 0.14453 1.2422-3.082 5.0273-2.1758 5.4883 0.13672 0.070312 0.26953 0.10938 0.60547-0.30859 0.26562-0.32422 1.2148-1.6719 1.7461-2.6133 0.44922-0.24609 1.25-0.91406 2.0156-0.625 1.9141 0.71875-2.5586 3.7422-3.6758 5.1445-0.34375 0.42969-0.26562 0.55078-0.16406 0.66406 0.10156 0.11719 0.21094 0.20312 0.67578-0.066407 0.64844-0.375 2.1602-1.5195 3.2266-2.6445 0.49609 0.15234 1.3555 0.19922 1.3633 0.78516 0.023437 0.30469-0.47266 0.73828-0.97656 1.0039-0.56641 0.3125-1.0938 0.61719-1.4961 0.85547-1.8125 1.0703-2.8438 1.4922-2.9062 1.8672-1.293 0.21094-2.0391 0.28906-3.0117-0.45312-0.5-0.39453-0.58594-0.55469-1.25-1.3906-0.41406-0.51562-0.82812-1.0156-1.1211-1.5586-0.62109-1.0742-0.93359-2.2148-1.043-3.0977-0.054687-0.39453-0.035156-0.71094 0.0625-0.91406 0.074219-0.17578 0.27734-0.30469 0.35938-0.30078 0.25-0.03125 0.51172 0.62109 0.63281 0.86719 0.95703 1.9844 1.1328 2.8047 1.5234 2.6914 0.14453-0.042969 0.28125-0.11719 0.09375-1.0312-0.097656-0.45703-0.28906-1.1328-0.67969-2.0742-0.20312-0.47266-0.38281-0.97656-0.82031-1.293-0.62109-0.46484-1.6406-0.27734-2.1094 0.67969-0.59375 1.2852 0.29297 3.7305 1.1094 5.0078 0.18359 0.29688 0.39062 0.58203 0.61719 0.85547 0.34375 0.38281 1.1484 1.2852 1.3711 1.5352 0.28906 0.31641 0.75781 0.6875 1.2773 0.92969-1.0898 2.1758-1.5977 6.8516-1.6172 6.9258-0.097656 0.36328-0.40234 0.71094-0.88672 0.82031-1.1445 0.23047-2.8203 0.55469-3.9336 1.0586-0.32812-4.5859-1.457-18.746-2.2852-23.039 0.03125-0.050781 0.035156-0.10547 0.035156-0.16016-0.003906-0.30859-0.085937-0.55859-4.3906-0.60156-1.918-0.019531-5.625 0.11328-6.9375 0.32812-0.28125-1.0586-0.62109-2.1016-1.2109-3.0312-1.4492-2.332-3.9414-2.7812-6.6758-2.375 0.32422-1.5625 0.039062-3.1719-1.1406-4.332-2.3281-2.2031-6.2422 0.34766-6.293 3.6562-0.019532 0.65625 0.125 1.0391 0.19141 1.0312 0.085938-0.007813 0.089844-0.39453 0.23828-0.97656 0.92969-3.9883 5.7422-4.9727 6.1016-0.54687 0.042968 0.57422 0.023437 1.0039 0.015625 1.3281-1.1836 0.27344-2.6289 0.88672-3.1289 2-1.0781-1.3906-3.5586-2.4258-6.1289-1.6055-2.5742 0.79688-3.7773 2.9023-4.8359 5.375-1.5-0.18359-5.9297-0.20312-8.2109-0.12891-5.0508 0.16797-5.1484 0.41797-5.1406 0.72656 0.007813 0.30859 0.12109 0.55078 5.1758 0.38672 2.207-0.074219 6.4141-0.37109 8.0312-0.64453-0.72266 1.7266-1.5352 3.7461-3.082 5.375-1.168 1.2617-2.625 1.9609-3.7305 2.1875-1.1094 0.24609-1.8398 0.09375-1.8516 0.19141-0.03125 0.078125 1.0234 0.45312 2.5195 0.14062 0.57422 0.28516 2.6641 0.99219 4.7227 1.3398 2.9844 0.51953 6.1602 0.32031 8.7539-1.1758 0.046875 1.625 1.7852 3.4766 3.9766 3.4102 1.332-0.042969 2.375-0.67578 2.8086-1.2852 0.26172-0.39062 0.14844-0.5 0.039063-0.59766-0.27344-0.24219-0.48047-0.003906-1.1328 0.3125 0.16406-0.625-0.32812-1.3828-0.99219-1.4062-0.58203-0.019531-1.0664 0.53516-1.0977 1.0977-0.070312-0.28516-0.18359-0.55859-0.38281-0.77344-0.30469-0.32422-0.83203-0.46875-1.207-0.23047s-0.42188 0.89453-0.03125 1.1016c0.35156 0.1875 0.68359 0.38672 0.99609 0.57031-0.64453-0.15234-1.25-0.51172-1.7031-0.95703-0.54297-0.50391-0.82812-1.0898-1.0078-1.3945 1.7539-1.0859 3.1602-2.832 3.5898-4.6797 0.74609 2.957 4.1445 4.1055 6.9844 4.8906 3.043 0.80859 6.3477 0.98047 9.2773-0.19141-0.37109 3.5742 2.3242 34.59 2.8125 36.207-1.7695-0.39062-17.969-0.27344-30.547 1.7695-5.582 0.94922 0.074219 0.39453 5.6562 0.015625 13.359-0.95703 25.25-0.75391 25.234-1.5508 0-0.078125-0.023437-0.15625-0.26562-0.21875 0.27344-1.5117-1.5586-33.844-2.4102-36.434 0.61719-0.28516 1.0508-0.5625 1.3555-0.78516 0.86719-0.66406 0.78125-0.83594 0.69531-0.94531-0.097656-0.13281-0.19922-0.17187-1.0586 0.25391-1.9453-0.50781-3.3789-1.5508-4.293-2.8438-0.79297-1.0703-1.1523-2.4922-1.5273-3.9219 2.0508 0.34766 10.047 0.71094 11.066 0.19922 0.035156 2.3398 0.45703 5.5352 1.9531 33.207 0.83203 15.543 1.1289 19.949 1.5938 19.922 0.15234-0.007813 0.28516-0.11719 0.25391-2.668-0.078126-5.5352-0.76563-18.836-1.3633-27.277 0.55859-0.023437 1.4023-0.16406 3.6836-0.39062 1.043-0.12891 1.9883-0.48047 2.1953-1.8516 0.56641-3.3125 1.1602-5.7461 1.2461-6.5703 0.11328 0.027344 0.30469 0.10156 0.72266 0.066406 0.58594-0.046874 1.2109-0.20312 1.7539-0.39844 0.082031 0.035156 0.21094 0.042969 0.42969 0 1.4023-0.30859 3.1367-1.4141 4.3164-2.207 2.1953-1.4727 1.1719-3.3359-0.67969-2.9258 0.31641-0.34766 0.57422-0.65625 0.80078-1.082 1.0859-2.0508-1.0977-3.3633-2.6719-1.9766zm-19.949 0.94141c-2.6367 1.1953-5.7383 1.6328-10.031 0.66406-3.1289-0.73828-6.2969-1.625-7.1016-4.7305 0.015625-0.30078-0.019531-0.48438-0.058594-0.59375-0.050781-0.14453-0.125-0.16016-0.20312-0.16406s-0.15234 0-0.23047 0.125c-0.31641 0.50391-0.75781 3.6602-4.3945 5.5312-4.1992 2.1836-9.1719 0.94922-12.133 0.49219 1.0234-0.29297 2.1836-0.89453 3.1797-1.8555 3.0391-2.8516 3.4961-6.7344 5.4375-8.9531 1.207-1.4453 2.9648-2.0703 4.6133-1.9219 2.4609 0.27344 3.4102 1.8242 3.793 1.5 0.035156-0.03125 0.066406-0.066406 0.066406-0.13281 0.29297-0.23047 1.3516-1.7969 5.4336-1.7422 5.8672 0.14062 4.4766 5.8906 7.1836 9.1914 1.0742 1.3477 2.6992 2.3359 4.4453 2.5898z"/>
 <path d="m15.277 43.016c0.59766 0.21484 1.5977 0.47656 2.25 0.38281 0.074218-0.011719 0.14844-0.035157 0.22266-0.054688 0.089844 0.83984 0.66797 3.1641 1.2539 6.5703 0.20312 1.332 1.1094 1.7148 2.1992 1.8477 2.5859 0.25391 3.9688 0.5 4.0078 0.34375 0.039062-0.14453-1.375-0.66406-3.1914-1.0547-0.91406-0.18359-1.7148-0.19141-1.9375-1.0234-0.0625-0.22656-0.47266-4.6445-1.625-6.9258 0.51172-0.23828 0.98438-0.60937 1.2773-0.92969 1.3203-1.4648 1.5664-1.7188 1.9883-2.3945 0.80859-1.2695 1.7031-3.7188 1.1055-5.0078-0.5-1.0078-1.7969-1.3555-2.5508-0.1875-0.26562 0.44531-0.82812 1.8242-1.0586 2.8828-0.1875 0.91797-0.050781 0.98828 0.09375 1.0312 0.15234 0.042968 0.28516 0.039062 0.65234-0.78516 0.78516-1.6992 1.1758-2.8125 1.4961-2.7734 0.082031-0.007812 0.28516 0.12109 0.35937 0.30078 0.09375 0.20312 0.11328 0.51953 0.0625 0.91406-0.32031 2.6055-1.6172 3.9648-2.7695 5.4258-0.19922 0.25391-0.41406 0.44141-0.64062 0.62109-0.96875 0.74219-1.7109 0.66797-3.0117 0.45703-0.0625-0.37109-1.043-0.76562-2.9062-1.8633-0.40234-0.23828-0.92969-0.53906-1.4961-0.85547-1.1445-0.59375-1.4062-1.3633-0.13281-1.668 0.22656-0.054687 0.40625-0.085937 0.51953-0.12109 1 1.0547 2.5039 2.2227 3.2305 2.6406 0.46484 0.26953 0.57422 0.18359 0.67578 0.066407 0.10156-0.11328 0.17969-0.23438-0.16406-0.66406-1.1367-1.4219-5.5898-4.4219-3.6797-5.1406 0.76953-0.29297 1.5664 0.375 2.0156 0.62109 0.54687 0.96484 1.5156 2.3242 1.75 2.6094 0.33594 0.41406 0.46875 0.375 0.60547 0.30469 0.13672-0.070313 0.25391-0.15234 0.085938-0.67969-0.55859-1.7266-3.2188-4.7227-1.9102-5.3125 0.23047-0.10156 0.55469-0.10156 0.82812-0.011719 0.78125 0.24609 1.2305 1.2461 1.5625 1.6484 0.011719 1.082 0.125 1.7031 0.22266 2.0547 0.13672 0.46094 0.28125 0.46484 0.43359 0.44922 0.5-0.046875 0.35156-0.75781 0.47656-3.5898 0.003906-0.15234 0.035156-0.42188 0.11719-0.55469 0.003907-0.003906 0.007813-0.023438 0.089844 0.015625 0.32422 0.16016 0.69531 0.86719 0.94531 1.3828 0.51953 1.1055 0.61328 2.1484 0.77344 2.1484 0.17969 0.015625 0.44531-1.6094-0.40234-3.4102-0.14453-0.3125-0.35937-0.71484-0.76953-0.99219-0.51953-0.37109-1.2383-0.22656-1.5625 0.29297-0.29297 0.47266-0.29297 0.86719-0.3125 1.4297-0.16797-0.46484-0.44531-1.1758-1.2656-1.6055-1.1367-0.53516-2.3438 0.007813-2.5 1.082-0.11328 0.64844 0.10156 1.2891 0.39062 1.8867-1.168-1.0273-2.6094-0.5625-2.9102 0.48828-0.26562 0.9375 0.39062 1.8555 1.0391 2.5742-1.6367-0.35937-2.4727 1.0234-1.5234 2.1797 0.80469 1.0039 4.8281 3.2656 5.5898 2.9531z"/>
 <path d="m78.918 68.09c0.30469-0.023438 0.54688-0.13281 0.21484-4.4258-0.18359-2.3516-0.82031-7.3828-1.125-7.3594-0.30469 0.023437-0.16406 5.0938 0.015626 7.4453 0.33203 4.293 0.58594 4.3633 0.89453 4.3398z"/>
 <path d="m80.094 59.168c-0.28516 0.050781-0.23438 2.3633-0.20312 3.4297 0.085937 1.9492 0.28906 1.9922 0.60938 1.9922 0.29688 0 0.58984-0.039063 0.5-2.0547-0.035156-1.1094-0.58984-3.4258-0.90625-3.3672z"/>
 <path d="m40.863 51.547c-0.011719 0.011719-0.085937-0.039063-0.15234-0.078125-0.066407-0.035156-0.12891-0.070312-0.1875-0.10156-0.51953-0.26172-0.66016-0.13281-0.38672 0.39062 0.21875 0.39063 0.27734 0.45703 0.875 1.1406 0.28906-0.27344 0.75781-0.74609 1.043-1.0469 0.89453-1.0078 0.73047-1.1953 0.5-1.4023-0.22656-0.20703-0.42969-0.35156-1.3281 0.65625-0.23437 0.27734-0.20312 0.24609-0.24609 0.30078-0.003907 0.007812 0 0.007812 0 0.007812 0.003906 0.019532 0.003906 0.050782-0.011719 0.10938-0.019531 0.023437-0.050781 0.03125-0.10547 0.023437z"/>
 <path d="m41.09 41.434c0.29688-0.27344 0.90625-0.86328 1.0234-0.98828 0.97266-1.043 0.8125-1.2344 0.58594-1.4414-0.22656-0.21094-0.42578-0.35938-1.3984 0.68359-0.085937 0.09375-0.1875 0.21094-0.28516 0.33594 0.003906 0.011718 0.007813 0.039062-0.007813 0.085937-0.019531 0.015625-0.042968 0.035156-0.125 0.011719-1.1328-0.61719-1.3242-0.38672-0.50391 0.60938 0.18359 0.19922 0.44922 0.45703 0.71094 0.70312z"/>
 <path d="m71.473 46.152c-0.25-2.2656-1.0352-7.1055-1.3398-7.0703-0.30469 0.035157-0.015624 4.9258 0.23438 7.1914 0.45703 4.1367 0.71484 4.1953 1.0195 4.1641 0.30469-0.035156 0.54297-0.14844 0.085937-4.2852z"/>
 <path d="m71.102 53.215c-0.30859 0.003906-0.54297 1.0547-0.53516 1.543 0.011719 0.89063 0.26172 0.90625 0.57031 0.90234 0.30859-0.003906 0.55469-0.027344 0.54297-0.91797-0.007813-0.48438-0.26953-1.5312-0.57813-1.5273z"/>
<text x="0.0" y="117.5" font-size="5.0" font-weight="bold" font-family="Arbeit Regular, Helvetica, Arial-Unicode, Arial, Sans-serif" fill="#000000">Created by Vectors Point</text><text x="0.0" y="122.5" font-size="5.0" font-weight="bold" font-family="Arbeit Regular, Helvetica, Arial-Unicode, Arial, Sans-serif" fill="#000000">from Noun Project</text></svg>